<?xml version="1.0" standalone="no"?><!DOCTYPE svg PUBLIC "-//W3C//DTD SVG 1.1//EN" "http://www.w3.org/Graphics/SVG/1.1/DTD/svg11.dtd"><svg t="1697013183310" class="icon" viewBox="0 0 1024 1024" version="1.1" xmlns="http://www.w3.org/2000/svg" p-id="6140" xmlns:xlink="http://www.w3.org/1999/xlink" width="1000" height="1000"><path d="M866.2528 779.8272c-2.68288-123.52512-48.3328-241.664-110.09024-322.22208-161.10592-214.81472-169.1648-10.73152-204.06272 32.22528-34.90816-24.1664-21.48352-118.15936-21.48352-163.79904v-93.98272c2.68288-32.22528 16.11776-42.9568 24.1664-69.81632-8.05888-10.73152-16.11776-18.80064-29.5424-24.1664l-16.10752 16.11776c-13.42464-10.74176-8.05888-13.42464-21.47328-16.11776-26.85952 26.85952 0 53.7088 2.68288 88.60672 2.68288 32.22528 2.68288 77.86496 2.68288 110.10048 0 26.83904 2.68288 118.13888-8.05888 139.6224-5.36576 8.05888 0 2.68288-5.36576 8.05888-13.42464-8.05888-8.05888-5.376-18.7904-32.21504-13.42464-29.5424-32.22528-80.56832-64.44032-93.98272-99.35872-37.59104-222.86336 306.11456-236.288 392.02816-8.05888 59.07456-2.69312 136.93952 69.80608 126.208 26.84928-5.36576 53.7088-21.48352 75.18208-29.55264 29.5424-10.73152 56.38144-13.4144 88.60672-16.10752 91.29984-10.73152 85.92384-32.21504 88.60672-120.832 0-42.9568 16.11776-48.3328 21.48352-85.92384 2.68288-32.21504-13.42464-69.80608 0-96.65536 13.42464-5.376 24.1664 0 26.84928 13.42464 8.05888 29.5424-26.84928 26.84928 5.36576 131.56352 18.80064 61.75744-13.42464 136.94976 56.38144 161.11616 45.64992 16.10752 67.13344 2.68288 174.5408 40.27392 96.6656 32.22528 102.0416 0 99.34848-93.97248z m-510.17728 13.42464c-51.01568 10.74176-104.71424 51.00544-153.04704 37.5808-34.90816-69.80608 26.84928-177.21344 40.27392-241.65376 69.81632 2.69312 61.75744-18.7904 96.6656 48.32256 18.80064 34.90816 53.7088 51.01568 107.40736 45.64992-5.376 123.52512 21.47328 88.61696-91.29984 110.10048z m102.0416-147.68128c-21.48352 8.04864-42.9568 8.04864-64.44032-2.68288-37.59104-24.17664-16.11776-85.92384-126.208-91.29984 18.80064-40.27392 69.81632-150.3744 115.46624-155.74016 40.27392 48.34304 34.90816 48.34304 61.75744 110.10048 13.42464 34.89792 34.89792 102.03136 13.42464 139.6224z m107.40736-5.376c-16.10752-48.32256 8.05888-88.60672 24.15616-131.57376 13.43488-37.59104 29.5424-91.2896 56.39168-110.09024 42.9568 5.36576 115.456 128.89088 123.51488 150.36416-115.456 0-88.61696 75.18208-134.25664 93.99296-24.1664 10.73152-61.75744 0-61.75744-2.69312-5.36576 0-8.04864 2.69312-8.04864 0z m249.71264 206.7456c-10.74176 5.376-80.55808-32.21504-155.72992-37.5808-88.60672-8.04864-77.8752-34.89792-83.24096-123.52512 45.64992 2.69312 91.2896 0 112.77312-45.63968 32.21504-61.75744 24.1664-48.32256 96.6656-48.32256 10.73152 56.38144 75.18208 198.68672 29.53216 255.06816z m0 0" p-id="6141"></path></svg>